<svg width="16" height="16" viewBox="0 0 16 16" fill="none" xmlns="http://www.w3.org/2000/svg">
    <path d="M6.65543 0.366751C7.48512 -0.122251 8.51488 -0.12225 9.34457 0.366751L10.484 1.03832C10.6971 1.1639 10.9267 1.25901 11.1662 1.32088L12.4468 1.65172C13.3792 1.89263 14.1074 2.62078 14.3483 3.55323L14.6791 4.83381C14.741 5.07328 14.8361 5.30291 14.9617 5.51599L15.6332 6.65543C16.1222 7.48512 16.1222 8.51488 15.6332 9.34457L14.9617 10.484C14.8361 10.6971 14.741 10.9267 14.6791 11.1662L14.3483 12.4468C14.1074 13.3792 13.3792 14.1074 12.4468 14.3483L11.1662 14.6791C10.9267 14.741 10.6971 14.8361 10.484 14.9617L9.34457 15.6332C8.51488 16.1222 7.48512 16.1222 6.65543 15.6332L5.51599 14.9617C5.30291 14.8361 5.07328 14.741 4.83381 14.6791L3.55323 14.3483C2.62078 14.1074 1.89263 13.3792 1.65172 12.4468L1.32088 11.1662C1.25901 10.9267 1.1639 10.6971 1.03832 10.484L0.366751 9.34457C-0.122251 8.51488 -0.12225 7.48512 0.366751 6.65543L1.03832 5.51599C1.1639 5.30291 1.25902 5.07328 1.32088 4.83381L1.65172 3.55323C1.89263 2.62078 2.62078 1.89263 3.55323 1.65172L4.83381 1.32088C5.07328 1.25901 5.30291 1.1639 5.51599 1.03832L6.65543 0.366751Z" fill="white"/>
    <path d="M6.85707 1.51181C7.5623 1.09616 8.4376 1.09616 9.14283 1.51181L10.1114 2.08264C10.2925 2.18939 10.4877 2.27024 10.6912 2.32282L11.7797 2.60404C12.5723 2.80881 13.1912 3.42773 13.396 4.22032L13.6772 5.30881C13.7298 5.51236 13.8106 5.70754 13.9174 5.88866L14.4882 6.85719C14.9039 7.56243 14.9039 8.43772 14.4882 9.14296L13.9174 10.1115C13.8106 10.2926 13.7298 10.4878 13.6772 10.6913L13.396 11.7798C13.1912 12.5724 12.5723 13.1913 11.7797 13.3961L10.6912 13.6773C10.4877 13.7299 10.2925 13.8108 10.1114 13.9175L9.14284 14.4883C8.4376 14.904 7.5623 14.904 6.85707 14.4883L5.88854 13.9175C5.70742 13.8108 5.51224 13.7299 5.30869 13.6773L4.2202 13.3961C3.42761 13.1913 2.80868 12.5724 2.60392 11.7798L2.3227 10.6913C2.27011 10.4878 2.18927 10.2926 2.08252 10.1115L1.51169 9.14296C1.09604 8.43772 1.09604 7.56242 1.51169 6.85719L2.08252 5.88866C2.18927 5.70754 2.27011 5.51236 2.3227 5.30881L2.60392 4.22032C2.80868 3.42773 3.42761 2.80881 4.2202 2.60404L5.30869 2.32282C5.51224 2.27024 5.70742 2.18939 5.88854 2.08264L6.85707 1.51181Z" fill="#F59300"/>
    <path d="M11.7453 6.48064C11.9506 6.27827 11.9517 5.94735 11.7476 5.74374L11.3534 5.35038C11.1521 5.14954 10.8267 5.14809 10.6236 5.34712L6.93328 8.96411L5.38708 7.43736C5.18712 7.23991 4.86633 7.23751 4.66344 7.43194L4.25986 7.81869C4.04976 8.02003 4.04626 8.35474 4.2521 8.56043L5.78237 10.0895L6.19186 10.4981C6.59119 10.8966 7.23569 10.9031 7.64299 10.5128L8.06116 10.112L11.7453 6.48064Z" fill="white"/>
</svg>
